<svg xmlns="http://www.w3.org/2000/svg" width="1440" height="1885" viewBox="0 0 1440 1885" fill="none">
  <path opacity="0.6" fill-rule="evenodd" clip-rule="evenodd" d="M-505.169 17.0986C-505.169 8.26204 -512.332 1.09859 -521.169 1.09859H-801.901C-810.738 1.09859 -817.901 8.26205 -817.901 17.0986V297.831C-817.901 306.668 -810.738 313.831 -801.901 313.831H-544.195C-539.952 313.831 -535.882 312.146 -532.882 309.145L-509.855 286.118C-506.854 283.118 -505.169 279.048 -505.169 274.805V17.0986ZM-465.278 313.831C-469.521 313.831 -473.591 312.146 -476.592 309.145L-499.2 286.536C-502.201 283.536 -503.887 279.466 -503.887 275.223V17.0986C-503.887 8.26206 -496.723 1.09859 -487.887 1.09859H-207.154C-198.318 1.09859 -191.154 8.26204 -191.154 17.0986V297.831C-191.154 306.668 -198.318 313.831 -207.154 313.831H-465.278ZM-503.887 353.246C-503.887 349.002 -502.201 344.932 -499.201 341.932L-477.068 319.799C-474.068 316.799 -469.998 315.113 -465.754 315.113H-207.154C-198.318 315.113 -191.154 322.277 -191.154 331.113V611.846C-191.154 620.682 -198.318 627.846 -207.154 627.846H-487.887C-496.723 627.846 -503.887 620.682 -503.887 611.846V353.246ZM-543.719 315.113C-539.475 315.113 -535.406 316.799 -532.405 319.8L-509.855 342.35C-506.854 345.35 -505.169 349.42 -505.169 353.663V611.846C-505.169 620.682 -512.332 627.846 -521.169 627.846H-801.901C-810.738 627.846 -817.901 620.682 -817.901 611.846V331.113C-817.901 322.277 -810.738 315.113 -801.901 315.113H-543.719ZM-803 0C-811.837 0 -819 7.16344 -819 16V314.015V314.93V628.028V628.944V942.043V942.958V1256.06V1256.97V1570.07V1570.99V1869C-819 1877.84 -811.837 1885 -803 1885H-504.985H-504.07H-190.972H-190.056H123.043H123.958H437.057H437.973H751.071H751.987H1065.09H1066H1379.1H1380.02H1693.11H1694.03H2007.13H2008.04H2306.06C2314.9 1885 2322.06 1877.84 2322.06 1869L2322.06 1570.99V1256.97V1256.06V942.043V628.944V314.93V314.015V16C2322.06 7.16344 2314.9 0 2306.06 0L2008.04 0L2007.13 0L1694.03 0L1693.11 0L1380.02 0L1379.1 0L1066 0L1065.09 0L751.987 0L751.071 0L437.973 0L437.057 0L123.958 0L123.043 0L-190.056 0L-190.972 0L-504.07 0L-504.985 0L-803 0ZM-189.873 17.0986C-189.873 8.26204 -182.71 1.09859 -173.873 1.09859H106.86C115.696 1.09859 122.86 8.26205 122.86 17.0986V297.831C122.86 306.668 115.696 313.831 106.86 313.831H-173.873C-182.71 313.831 -189.873 306.668 -189.873 297.831V17.0986ZM436.874 17.0986C436.874 8.26204 429.711 1.09859 420.874 1.09859H140.141C131.305 1.09859 124.141 8.26205 124.141 17.0986V297.831C124.141 306.668 131.305 313.831 140.141 313.831H420.874C429.711 313.831 436.874 306.668 436.874 297.831V17.0986ZM438.156 17.0986C438.156 8.26204 445.32 1.09859 454.156 1.09859H734.889C743.725 1.09859 750.889 8.26205 750.889 17.0986V297.831C750.889 306.668 743.725 313.831 734.889 313.831H454.156C445.32 313.831 438.156 306.668 438.156 297.831V17.0986ZM1064.9 17.0986C1064.9 8.26204 1057.74 1.09859 1048.9 1.09859H768.17C759.333 1.09859 752.17 8.26205 752.17 17.0986V297.831C752.17 306.668 759.333 313.831 768.17 313.831H1048.9C1057.74 313.831 1064.9 306.668 1064.9 297.831V17.0986ZM1066.18 17.0986C1066.18 8.26204 1073.35 1.09859 1082.18 1.09859H1362.92C1371.75 1.09859 1378.92 8.26205 1378.92 17.0986V297.831C1378.92 306.668 1371.75 313.831 1362.92 313.831H1082.18C1073.35 313.831 1066.18 306.668 1066.18 297.831V17.0986ZM1692.93 17.0986C1692.93 8.26204 1685.77 1.09859 1676.93 1.09859H1396.2C1387.36 1.09859 1380.2 8.26205 1380.2 17.0986V297.831C1380.2 306.668 1387.36 313.831 1396.2 313.831H1676.93C1685.77 313.831 1692.93 306.668 1692.93 297.831V17.0986ZM1694.21 17.0986C1694.21 8.26204 1701.38 1.09859 1710.21 1.09859H1990.95C1999.78 1.09859 2006.95 8.26205 2006.95 17.0986V297.831C2006.95 306.668 1999.78 313.831 1990.95 313.831H1710.21C1701.38 313.831 1694.21 306.668 1694.21 297.831V17.0986ZM2320.96 17.0986C2320.96 8.26204 2313.8 1.09859 2304.96 1.09859H2024.23C2015.39 1.09859 2008.23 8.26205 2008.23 17.0986V297.831C2008.23 306.668 2015.39 313.831 2024.23 313.831H2304.96C2313.8 313.831 2320.96 306.668 2320.96 297.831V17.0986ZM-189.873 331.113C-189.873 322.277 -182.71 315.113 -173.873 315.113H106.86C115.696 315.113 122.86 322.277 122.86 331.113V611.846C122.86 620.682 115.696 627.846 106.86 627.846H-173.873C-182.71 627.846 -189.873 620.682 -189.873 611.846V331.113ZM436.874 331.113C436.874 322.277 429.711 315.113 420.874 315.113H140.141C131.305 315.113 124.141 322.277 124.141 331.113V611.846C124.141 620.682 131.305 627.846 140.141 627.846H398.79C403.034 627.846 407.103 626.16 410.104 623.16L432.188 601.076C435.188 598.075 436.874 594.005 436.874 589.762V331.113ZM475.737 627.846C471.493 627.846 467.424 626.16 464.423 623.16L442.842 601.579C439.842 598.578 438.156 594.509 438.156 590.265V331.113C438.156 322.277 445.32 315.113 454.156 315.113H734.889C743.725 315.113 750.889 322.277 750.889 331.113V611.846C750.889 620.682 743.725 627.846 734.889 627.846H475.737ZM438.156 668.203C438.156 663.959 439.842 659.89 442.842 656.889L470.466 629.265C470.483 629.248 470.483 629.22 470.466 629.203C470.438 629.175 470.458 629.127 470.497 629.127H734.889C743.725 629.127 750.889 636.29 750.889 645.127V925.859C750.889 934.696 743.725 941.859 734.889 941.859H454.156C445.32 941.859 438.156 934.696 438.156 925.859V668.203ZM404.029 629.127C404.069 629.127 404.089 629.175 404.061 629.203C404.043 629.22 404.043 629.248 404.061 629.265L432.188 657.392C435.188 660.393 436.874 664.463 436.874 668.706V925.859C436.874 934.696 429.711 941.859 420.874 941.859H140.141C131.305 941.859 124.141 934.696 124.141 925.859V645.127C124.141 636.29 131.305 629.127 140.141 629.127H404.029ZM1064.9 331.113C1064.9 322.277 1057.74 315.113 1048.9 315.113H768.17C759.333 315.113 752.17 322.277 752.17 331.113V611.846C752.17 620.682 759.333 627.846 768.17 627.846H1048.9C1057.74 627.846 1064.9 620.682 1064.9 611.846V331.113ZM1066.18 331.113C1066.18 322.277 1073.35 315.113 1082.18 315.113H1362.92C1371.75 315.113 1378.92 322.277 1378.92 331.113V611.846C1378.92 620.682 1371.75 627.846 1362.92 627.846H1082.18C1073.35 627.846 1066.18 620.682 1066.18 611.846V331.113ZM1692.93 331.113C1692.93 322.277 1685.77 315.113 1676.93 315.113H1396.2C1387.36 315.113 1380.2 322.277 1380.2 331.113V611.846C1380.2 620.682 1387.36 627.846 1396.2 627.846H1676.93C1685.77 627.846 1692.93 620.682 1692.93 611.846V331.113ZM1694.21 331.113C1694.21 322.277 1701.38 315.113 1710.21 315.113H1990.95C1999.78 315.113 2006.95 322.277 2006.95 331.113V540.333C2006.95 540.814 2006.75 541.275 2006.41 541.614L1924.87 623.16C1921.87 626.16 1917.8 627.846 1913.56 627.846H1710.21C1701.38 627.846 1694.21 620.682 1694.21 611.846V331.113ZM1918.83 629.203C1918.85 629.175 1918.83 629.127 1918.8 629.127H1710.21C1701.38 629.127 1694.21 636.29 1694.21 645.127V910C1694.21 910.388 1694.68 910.582 1694.96 910.308C1695.13 910.138 1695.4 910.138 1695.57 910.308L1722.44 937.173C1725.44 940.174 1729.51 941.859 1733.75 941.859H1990.95C1999.78 941.859 2006.95 934.696 2006.95 925.859V718.137C2006.95 717.656 2006.76 717.194 2006.41 716.854L1919.64 630.083L1918.83 629.265C1918.81 629.248 1918.81 629.22 1918.83 629.203ZM2006.95 677.061C2006.95 691.315 1989.71 698.454 1979.63 688.374L1920.57 629.31C1920.53 629.268 1920.53 629.2 1920.57 629.158C1920.59 629.138 1920.62 629.127 1920.64 629.127H1974.03C1974.07 629.127 1974.09 629.175 1974.06 629.203C1974.04 629.22 1974.04 629.248 1974.06 629.265L2002.26 657.464C2005.26 660.465 2006.95 664.535 2006.95 668.778V677.061ZM2012.91 712.052C2009.91 715.052 2008.23 719.122 2008.23 723.366V925.859C2008.23 934.696 2015.39 941.859 2024.23 941.859H2304.96C2313.8 941.859 2320.96 934.696 2320.96 925.859V645.127C2320.96 636.29 2313.8 629.127 2304.96 629.127H2095.73C2095.69 629.127 2095.67 629.175 2095.7 629.203C2095.72 629.22 2095.72 629.248 2095.7 629.265L2094.88 630.083L2012.91 712.052ZM2093.88 629.127C2093.91 629.127 2093.94 629.138 2093.96 629.158C2094 629.2 2094 629.268 2093.96 629.31L2035.54 687.727C2025.46 697.807 2008.23 690.668 2008.23 676.414V668.132C2008.23 663.888 2009.91 659.819 2012.91 656.818L2040.47 629.265C2040.48 629.248 2040.48 629.22 2040.47 629.203C2040.44 629.175 2040.46 629.127 2040.5 629.127H2093.88ZM2089.66 623.16C2092.66 626.16 2096.73 627.846 2100.97 627.846H2304.96C2313.8 627.846 2320.96 620.682 2320.96 611.846V331.113C2320.96 322.277 2313.8 315.113 2304.96 315.113H2024.23C2015.39 315.113 2008.23 322.277 2008.23 331.113V535.103C2008.23 539.347 2009.91 543.417 2012.91 546.417L2089.66 623.16ZM2008.23 582.055C2008.23 567.801 2025.46 560.662 2035.54 570.742L2065.33 600.532C2075.41 610.612 2068.27 627.846 2054.02 627.846H2045.74C2041.49 627.846 2037.42 626.16 2034.42 623.16L2012.91 601.651C2009.91 598.65 2008.23 594.581 2008.23 590.337V582.055ZM2006.95 581.408C2006.95 567.154 1989.71 560.015 1979.63 570.095L1949.19 600.532C1939.11 610.612 1946.25 627.846 1960.51 627.846H1968.79C1973.03 627.846 1977.1 626.16 1980.1 623.16L2002.26 601.005C2005.26 598.004 2006.95 593.934 2006.95 589.691V581.408ZM1694.21 976.468C1694.21 976.08 1694.68 975.886 1694.96 976.16C1695.13 976.33 1695.4 976.33 1695.57 976.16L1728.47 943.261C1728.49 943.246 1728.49 943.222 1728.47 943.207C1728.45 943.183 1728.46 943.141 1728.5 943.141H1990.95C1999.78 943.141 2006.95 950.305 2006.95 959.141V1239.87C2006.95 1248.71 1999.78 1255.87 1990.95 1255.87H1710.21C1701.38 1255.87 1694.21 1248.71 1694.21 1239.87V976.468ZM1662.03 943.141C1662.06 943.141 1662.08 943.183 1662.06 943.207C1662.04 943.222 1662.04 943.246 1662.06 943.261L1688.25 969.45C1691.25 972.45 1692.93 976.52 1692.93 980.763V1239.87C1692.93 1248.71 1685.77 1255.87 1676.93 1255.87H1396.2C1387.36 1255.87 1380.2 1248.71 1380.2 1239.87V959.141C1380.2 950.305 1387.36 943.141 1396.2 943.141H1662.03ZM1692.93 905.705C1692.93 909.948 1691.25 914.018 1688.25 917.018L1668.09 937.173C1665.09 940.174 1661.02 941.859 1656.78 941.859H1396.2C1387.36 941.859 1380.2 934.696 1380.2 925.859V645.127C1380.2 636.29 1387.36 629.127 1396.2 629.127H1676.93C1685.77 629.127 1692.93 636.29 1692.93 645.127V905.705ZM-817.901 645.127C-817.901 636.29 -810.738 629.127 -801.901 629.127H-521.169C-512.332 629.127 -505.169 636.29 -505.169 645.127V925.859C-505.169 934.696 -512.332 941.859 -521.169 941.859H-801.901C-810.738 941.859 -817.901 934.696 -817.901 925.859V645.127ZM-191.154 645.127C-191.154 636.29 -198.318 629.127 -207.154 629.127H-487.887C-496.723 629.127 -503.887 636.29 -503.887 645.127V925.859C-503.887 934.696 -496.723 941.859 -487.887 941.859H-207.154C-198.318 941.859 -191.154 934.696 -191.154 925.859V645.127ZM-189.873 645.127C-189.873 636.29 -182.71 629.127 -173.873 629.127H106.86C115.696 629.127 122.86 636.29 122.86 645.127V925.859C122.86 934.696 115.696 941.859 106.86 941.859H-173.873C-182.71 941.859 -189.873 934.696 -189.873 925.859V645.127ZM1064.9 645.127C1064.9 636.29 1057.74 629.127 1048.9 629.127H768.171C759.334 629.127 752.171 636.29 752.171 645.127V925.859C752.171 934.696 759.334 941.859 768.171 941.859H1048.9C1057.74 941.859 1064.9 934.696 1064.9 925.859V645.127ZM1066.18 645.127C1066.18 636.29 1073.35 629.127 1082.18 629.127H1362.92C1371.75 629.127 1378.92 636.29 1378.92 645.127V925.859C1378.92 934.696 1371.75 941.859 1362.92 941.859H1082.18C1073.35 941.859 1066.18 934.696 1066.18 925.859V645.127ZM-817.901 959.141C-817.901 950.305 -810.738 943.141 -801.901 943.141H-521.169C-512.332 943.141 -505.169 950.305 -505.169 959.141V1239.87C-505.169 1248.71 -512.332 1255.87 -521.169 1255.87H-801.901C-810.738 1255.87 -817.901 1248.71 -817.901 1239.87V959.141ZM-191.154 959.141C-191.154 950.305 -198.318 943.141 -207.154 943.141H-487.887C-496.723 943.141 -503.887 950.305 -503.887 959.141V1239.87C-503.887 1248.71 -496.723 1255.87 -487.887 1255.87H-277.971C-277.821 1255.87 -277.745 1255.69 -277.852 1255.59C-277.917 1255.52 -277.917 1255.41 -277.852 1255.35L-277.122 1254.62L-195.84 1173.34C-192.84 1170.34 -191.154 1166.27 -191.154 1162.02V959.141ZM-191.154 1208.98C-191.154 1194.72 -208.388 1187.58 -218.468 1197.66L-275.986 1255.18C-276.145 1255.34 -276.145 1255.6 -275.986 1255.76C-275.91 1255.83 -275.806 1255.87 -275.698 1255.87H-222.736C-222.586 1255.87 -222.511 1255.69 -222.617 1255.59C-222.683 1255.52 -222.683 1255.41 -222.617 1255.35L-195.84 1228.57C-192.84 1225.57 -191.154 1221.5 -191.154 1217.26V1208.98ZM-189.611 1222.34C-189.708 1222.44 -189.873 1222.37 -189.873 1222.23V1169.22C-189.873 1169.12 -189.834 1169.03 -189.765 1168.96C-189.62 1168.81 -189.385 1168.81 -189.24 1168.96L-103.019 1255.18C-102.86 1255.34 -102.86 1255.6 -103.019 1255.76C-103.095 1255.83 -103.199 1255.87 -103.307 1255.87H-156.268C-156.418 1255.87 -156.494 1255.69 -156.387 1255.59C-156.322 1255.52 -156.322 1255.41 -156.387 1255.35L-189.394 1222.34C-189.454 1222.28 -189.551 1222.28 -189.611 1222.34ZM-189.873 1288.7C-189.873 1288.56 -189.708 1288.5 -189.611 1288.59C-189.551 1288.65 -189.454 1288.65 -189.394 1288.59L-162.643 1261.84C-159.643 1258.84 -155.573 1257.16 -151.33 1257.16H-143.048C-128.793 1257.16 -121.654 1274.39 -131.734 1284.47L-189.24 1341.98C-189.385 1342.12 -189.62 1342.12 -189.765 1341.98C-189.834 1341.91 -189.873 1341.81 -189.873 1341.71V1288.7ZM-227.675 1257.16C-223.432 1257.16 -219.362 1258.84 -216.361 1261.84L-195.84 1282.36C-192.84 1285.36 -191.154 1289.43 -191.154 1293.68V1301.96C-191.154 1316.21 -208.388 1323.35 -218.468 1313.27L-247.271 1284.47C-257.351 1274.39 -250.212 1257.16 -235.957 1257.16H-227.675ZM-271.596 1261.84C-274.596 1258.84 -278.666 1257.16 -282.909 1257.16H-487.887C-496.723 1257.16 -503.887 1264.32 -503.887 1273.16V1553.89C-503.887 1562.73 -496.723 1569.89 -487.887 1569.89H-207.154C-198.318 1569.89 -191.154 1562.73 -191.154 1553.89V1348.91C-191.154 1344.67 -192.84 1340.6 -195.84 1337.6L-271.596 1261.84ZM-189.611 1343.83C-189.708 1343.73 -189.873 1343.8 -189.873 1343.94V1553.89C-189.873 1562.73 -182.71 1569.89 -173.873 1569.89H106.86C115.696 1569.89 122.86 1562.73 122.86 1553.89V1273.16C122.86 1264.32 115.696 1257.16 106.86 1257.16H-96.0957C-100.339 1257.16 -104.409 1258.84 -107.409 1261.84L-188.654 1343.09L-189.394 1343.83C-189.454 1343.89 -189.551 1343.89 -189.611 1343.83ZM-101.154 1255.59C-101.26 1255.69 -101.185 1255.87 -101.034 1255.87H106.86C115.696 1255.87 122.86 1248.71 122.86 1239.87V959.141C122.86 950.305 115.696 943.141 106.86 943.141H-173.873C-182.71 943.141 -189.873 950.305 -189.873 959.141V1167C-189.873 1167.14 -189.708 1167.2 -189.611 1167.11C-189.551 1167.05 -189.454 1167.05 -189.394 1167.11L-188.654 1167.85L-101.883 1254.62L-101.154 1255.35C-101.088 1255.41 -101.088 1255.52 -101.154 1255.59ZM436.874 959.141C436.874 950.305 429.711 943.141 420.874 943.141H140.141C131.305 943.141 124.141 950.305 124.141 959.141V1239.87C124.141 1248.71 131.305 1255.87 140.141 1255.87H420.874C429.711 1255.87 436.874 1248.71 436.874 1239.87V959.141ZM438.156 959.141C438.156 950.305 445.32 943.141 454.156 943.141H734.889C743.725 943.141 750.889 950.305 750.889 959.141V1239.87C750.889 1248.71 743.725 1255.87 734.889 1255.87H454.156C445.32 1255.87 438.156 1248.71 438.156 1239.87V959.141ZM1064.9 959.141C1064.9 950.305 1057.74 943.141 1048.9 943.141H768.17C759.333 943.141 752.17 950.305 752.17 959.141V1239.87C752.17 1248.71 759.333 1255.87 768.17 1255.87H1048.9C1057.74 1255.87 1064.9 1248.71 1064.9 1239.87V959.141ZM1066.18 959.141C1066.18 950.305 1073.35 943.141 1082.18 943.141H1362.92C1371.75 943.141 1378.92 950.305 1378.92 959.141V1239.87C1378.92 1248.71 1371.75 1255.87 1362.92 1255.87H1082.18C1073.35 1255.87 1066.18 1248.71 1066.18 1239.87V959.141ZM2320.96 959.141C2320.96 950.305 2313.8 943.141 2304.96 943.141H2024.23C2015.39 943.141 2008.23 950.305 2008.23 959.141V1239.87C2008.23 1248.71 2015.39 1255.87 2024.23 1255.87H2304.96C2313.8 1255.87 2320.96 1248.71 2320.96 1239.87V959.141ZM-817.901 1273.16C-817.901 1264.32 -810.738 1257.16 -801.901 1257.16H-521.169C-512.332 1257.16 -505.169 1264.32 -505.169 1273.16V1553.89C-505.169 1562.73 -512.332 1569.89 -521.169 1569.89H-801.901C-810.738 1569.89 -817.901 1562.73 -817.901 1553.89V1273.16ZM436.874 1273.16C436.874 1264.32 429.711 1257.16 420.874 1257.16H140.141C131.305 1257.16 124.141 1264.32 124.141 1273.16V1553.89C124.141 1562.73 131.305 1569.89 140.141 1569.89H420.874C429.711 1569.89 436.874 1562.73 436.874 1553.89V1273.16ZM438.156 1273.16C438.156 1264.32 445.32 1257.16 454.156 1257.16H734.889C743.725 1257.16 750.889 1264.32 750.889 1273.16V1553.89C750.889 1562.73 743.725 1569.89 734.889 1569.89H454.156C445.32 1569.89 438.156 1562.73 438.156 1553.89V1273.16ZM1064.9 1273.16C1064.9 1264.32 1057.74 1257.16 1048.9 1257.16H768.17C759.333 1257.16 752.17 1264.32 752.17 1273.16V1553.89C752.17 1562.73 759.333 1569.89 768.17 1569.89H1048.9C1057.74 1569.89 1064.9 1562.73 1064.9 1553.89V1273.16ZM1066.18 1273.16C1066.18 1264.32 1073.35 1257.16 1082.18 1257.16H1362.92C1371.75 1257.16 1378.92 1264.32 1378.92 1273.16V1553.89C1378.92 1562.73 1371.75 1569.89 1362.92 1569.89H1082.18C1073.35 1569.89 1066.18 1562.73 1066.18 1553.89V1273.16ZM1692.93 1273.16C1692.93 1264.32 1685.77 1257.16 1676.93 1257.16H1396.2C1387.36 1257.16 1380.2 1264.32 1380.2 1273.16V1553.89C1380.2 1562.73 1387.36 1569.89 1396.2 1569.89H1676.93C1685.77 1569.89 1692.93 1562.73 1692.93 1553.89V1273.16ZM1694.21 1273.16C1694.21 1264.32 1701.38 1257.16 1710.21 1257.16H1990.95C1999.78 1257.16 2006.95 1264.32 2006.95 1273.16V1553.89C2006.95 1562.73 1999.78 1569.89 1990.95 1569.89H1710.21C1701.38 1569.89 1694.21 1562.73 1694.21 1553.89V1273.16ZM2320.96 1273.16C2320.96 1264.32 2313.8 1257.16 2304.96 1257.16H2024.23C2015.39 1257.16 2008.23 1264.32 2008.23 1273.16V1553.89C2008.23 1562.73 2015.39 1569.89 2024.23 1569.89H2304.96C2313.8 1569.89 2320.96 1562.73 2320.96 1553.89V1273.16ZM-817.901 1587.17C-817.901 1578.33 -810.738 1571.17 -801.901 1571.17H-521.169C-512.332 1571.17 -505.169 1578.33 -505.169 1587.17V1867.9C-505.169 1876.74 -512.332 1883.9 -521.169 1883.9H-801.901C-810.738 1883.9 -817.901 1876.74 -817.901 1867.9V1587.17ZM-191.154 1587.17C-191.154 1578.33 -198.318 1571.17 -207.154 1571.17H-487.887C-496.723 1571.17 -503.887 1578.33 -503.887 1587.17V1867.9C-503.887 1876.74 -496.723 1883.9 -487.887 1883.9H-207.154C-198.318 1883.9 -191.154 1876.74 -191.154 1867.9V1587.17ZM-189.873 1587.17C-189.873 1578.33 -182.71 1571.17 -173.873 1571.17H106.86C115.696 1571.17 122.86 1578.33 122.86 1587.17V1867.9C122.86 1876.74 115.696 1883.9 106.86 1883.9H-173.873C-182.71 1883.9 -189.873 1876.74 -189.873 1867.9V1587.17ZM436.874 1587.17C436.874 1578.33 429.711 1571.17 420.874 1571.17H140.141C131.305 1571.17 124.141 1578.33 124.141 1587.17V1867.9C124.141 1876.74 131.305 1883.9 140.141 1883.9H420.874C429.711 1883.9 436.874 1876.74 436.874 1867.9V1587.17ZM438.156 1587.17C438.156 1578.33 445.32 1571.17 454.156 1571.17H734.889C743.725 1571.17 750.889 1578.33 750.889 1587.17V1867.9C750.889 1876.74 743.725 1883.9 734.889 1883.9H454.156C445.32 1883.9 438.156 1876.74 438.156 1867.9V1587.17ZM1064.9 1587.17C1064.9 1578.33 1057.74 1571.17 1048.9 1571.17H768.17C759.333 1571.17 752.17 1578.33 752.17 1587.17V1867.9C752.17 1876.74 759.333 1883.9 768.17 1883.9H1048.9C1057.74 1883.9 1064.9 1876.74 1064.9 1867.9V1587.17ZM1066.18 1587.17C1066.18 1578.33 1073.35 1571.17 1082.18 1571.17H1362.92C1371.75 1571.17 1378.92 1578.33 1378.92 1587.17V1867.9C1378.92 1876.74 1371.75 1883.9 1362.92 1883.9H1082.18C1073.35 1883.9 1066.18 1876.74 1066.18 1867.9V1587.17ZM1692.93 1587.17C1692.93 1578.33 1685.77 1571.17 1676.93 1571.17H1396.2C1387.36 1571.17 1380.2 1578.33 1380.2 1587.17V1867.9C1380.2 1876.74 1387.36 1883.9 1396.2 1883.9H1676.93C1685.77 1883.9 1692.93 1876.74 1692.93 1867.9V1587.17ZM1694.21 1587.17C1694.21 1578.33 1701.38 1571.17 1710.21 1571.17H1990.95C1999.78 1571.17 2006.95 1578.33 2006.95 1587.17V1867.9C2006.95 1876.74 1999.78 1883.9 1990.95 1883.9H1710.21C1701.38 1883.9 1694.21 1876.74 1694.21 1867.9V1587.17ZM2320.96 1587.17C2320.96 1578.33 2313.8 1571.17 2304.96 1571.17H2024.23C2015.39 1571.17 2008.23 1578.33 2008.23 1587.17V1867.9C2008.23 1876.74 2015.39 1883.9 2024.23 1883.9H2304.96C2313.8 1883.9 2320.96 1876.74 2320.96 1867.9V1587.17Z" fill="url(#paint0_radial_19_15846)" fill-opacity="0.1"/>
  <defs>
    <radialGradient id="paint0_radial_19_15846" cx="0" cy="0" r="1" gradientUnits="userSpaceOnUse" gradientTransform="translate(752 188) rotate(90) scale(1542.5 2570.33)">
      <stop stop-color="#B0C1D5"/>
      <stop offset="1" stop-color="#282B34"/>
    </radialGradient>
  </defs>
</svg>